<?xml version="1.0" encoding="utf-8"?>
<!-- Generator: Adobe Illustrator 24.1.1, SVG Export Plug-In . SVG Version: 6.00 Build 0)  -->
<svg version="1.1" id="Capa_1" xmlns="http://www.w3.org/2000/svg" xmlns:xlink="http://www.w3.org/1999/xlink" x="0px" y="0px"
	 viewBox="0 0 512 512" style="enable-background:new 0 0 512 512;" xml:space="preserve">
<g>
	<g>
		<path d="M471.5,322.3c19.9-13.5,32.5-36.3,32.5-61c0-22.5-10.5-43.8-27.9-57.7c11.7-20.2,17.8-43,17.8-66.5
			c0-73.4-59.7-133.1-133.1-133.1c-22.8,0-45,5.8-64.8,16.8C283.8,7.7,266.5,0,248.2,0c-19,0-37,8.4-49.3,22.5
			C181.8,8.1,159.9,0,137.3,0C84.4,0,41.4,43,41.4,95.9c0,29.8,13.6,56.4,35,74c-1.3,18,3.2,36,13.1,51.3c9,14.1,22,25,37.2,31.5
			c-16.4,29.8-37,57.3-60.9,81.2l-48.4,48.4c-12.5,12.5-12.5,32.7,0,45.2l75.1,75.1c6,6,14.1,9.4,22.6,9.4c8.5,0,16.6-3.3,22.6-9.4
			l26.8-26.8c40-40,92.1-67.1,147.8-77c2.4,50.8,44.4,91.4,95.8,91.4c52.9,0,95.9-43,95.9-95.9C504,366.3,492.1,340.4,471.5,322.3z
			 M96.5,182.7c12.4,5.9,26.2,9.1,40.8,9.1c5.6,0,11.1-0.5,16.6-1.4l-4.5,12.3c-4,10.9-8.5,21.7-13.6,32.2
			C114,226.1,99,205.7,96.5,182.7z M313.5,378.4c-31.7,5.1-62.3,15.4-90.6,30.2c-1-4.6-3.3-8.9-6.7-12.3L203.9,384
			c-4.7-4.7-11-7.3-17.6-7.3s-12.9,2.6-17.6,7.3l-29,29c-3.9,3.9-3.9,10.2,0,14.1c3.9,3.9,10.2,3.9,14.1,0l29-29
			c1.3-1.3,2.7-1.4,3.5-1.4s2.2,0.2,3.5,1.4l12.2,12.2c1.9,1.9,1.9,5,0,7l-7.3,7.3c-0.5,0.5-0.9,1-1.2,1.5
			c-15.4,10.5-29.9,22.4-43.2,35.6l-26.8,26.8c-4.7,4.7-12.2,4.7-16.9,0l-53.1-53.1l50.5-50.5c3.9-3.9,3.9-10.2,0-14.1
			c-3.9-3.9-10.2-3.9-14.1,0l-50.5,50.5l-7.9-7.9c-4.7-4.7-4.7-12.2,0-16.9l48.4-48.4c38.9-38.9,69.4-86.8,88.3-138.5l7.4-20.2
			c7.6,8.8,16.6,16.1,26.6,21.6l-22.5,78.5c-1.3,4.4,0.6,9.1,4.5,11.4c1.6,0.9,3.3,1.4,5.1,1.4c2.6,0,5.1-1,7.1-2.9l69.3-69.3
			c7.3,7.5,15.4,14.1,24.3,19.7c-1.6,7.1-2.5,14.4-2.5,21.7c0,7.6,0.9,15,2.5,22.1l-48.8,48.8c-2.9,2.9-3.7,7.2-2.2,10.9
			c1.5,3.7,5.2,6.2,9.2,6.2H297c5.5,0,10-4.5,10-10s-4.5-10-10-10h-24.6l25.1-25.1c6.3,12.7,15.5,24,27.1,32.9
			C319,356.9,315.3,367.4,313.5,378.4z M209.5,257.8l11.2-39.1c7.7,2.3,15.8,3.6,24,3.9L209.5,257.8z M406.5,470.2
			c-40.6-0.8-73.7-34-74.4-74.6c-0.3-16.3,4.6-31.9,13.9-45.2c0.9-1.3,1.6-2.7,1.8-4.2c0.7-4.2-1.2-8.2-4.6-10.3
			c-15.9-9.9-27.3-24.8-32.6-42.1c-0.1-0.2-0.1-0.5-0.2-0.7c-2.1-7-3.2-14.3-3.2-21.8c0-7.9,1.2-15.7,3.6-23.2
			c1.5-4.6-0.4-9.6-4.6-12c-13.8-7.6-26.1-18.2-35.6-30.8c-1.9-2.5-4.9-4-8-4c-0.6,0-1.1,0-1.7,0.1c-4.3,0.7-8.6,1.1-12.9,1.1
			c-26.1,0-50.1-13.2-64.1-35.3c-2.8-4.3-8.3-5.9-12.9-3.6c-10.6,5.3-22,8-33.9,8c-41.9,0-75.9-34.1-75.9-75.9S95.4,20,137.3,20
			c20.7,0,40.7,8.6,55,23.6c0.7,0.7,1.4,1.3,2,2c12.2,13.8,19,31.5,19,50c0,5.4,4.3,10.1,9.7,10.2c5.6,0.2,10.3-4.4,10.3-10
			c0-21.6-7.2-42.3-20.4-59.1c8.5-10.5,21.5-16.8,35.2-16.8c14.9,0,28.9,7.3,37.3,19.6c3.1,4.5,9.1,5.7,13.7,2.7
			c19.7-12.8,42.7-19.1,66.4-18.2c60.1,2.5,108,52.3,108.3,112.5c0.1,22.8-6.6,44.8-19.3,63.6c-0.3,0.4-0.7,0.7-1,1.1
			c-21.3,30-55.3,48.2-90.9,48.8c-5.3,0.1-9.9,4-10.3,9.3c-0.4,5.8,4.3,10.7,10,10.7c0,0,0.1,0,0.1,0c39.2-0.4,76.7-19,102-50.1
			c12.1,10.1,19.4,25.2,19.4,41.2c0,22.2-14,42.4-34.8,50.2c-3.6,1.3-6.1,4.6-6.4,8.4c-0.4,3.8,1.5,7.5,4.8,9.5
			c22.9,13.9,36.5,38.2,36.5,64.9C484,436.7,449.1,471.1,406.5,470.2z"/>
	</g>
</g>
<g>
	<g>
		<path d="M361.3,52.2l-0.5,0c-5.5,0-10,4.5-10,10s4.5,10,10,10l0.3,0c0,0,0.1,0,0.1,0c5.5,0,10-4.4,10-9.9
			C371.3,56.8,366.8,52.2,361.3,52.2z"/>
	</g>
</g>
<g>
	<g>
		<path d="M404.3,64.1c-4.7-2.8-10.9-1.3-13.7,3.5c-2.8,4.7-1.3,10.9,3.5,13.7c19.6,11.7,31.8,33.1,31.8,55.8c0,5.5,4.5,10,10,10
			s10-4.5,10-10C445.8,107.4,429.9,79.4,404.3,64.1z"/>
	</g>
</g>
<g>
	<g>
		<path d="M131.7,343c-1.9-1.9-4.4-2.9-7.1-2.9c-2.6,0-5.2,1.1-7.1,2.9c-1.9,1.9-2.9,4.4-2.9,7.1c0,2.6,1.1,5.2,2.9,7.1
			c1.9,1.9,4.4,2.9,7.1,2.9c2.6,0,5.2-1.1,7.1-2.9c1.9-1.9,2.9-4.4,2.9-7.1C134.7,347.4,133.6,344.9,131.7,343z"/>
	</g>
</g>
</svg>
