<?xml version="1.0" encoding="iso-8859-1"?>
<!-- Generator: Adobe Illustrator 19.0.0, SVG Export Plug-In . SVG Version: 6.00 Build 0)  -->
<svg version="1.1" id="Capa_1" xmlns="http://www.w3.org/2000/svg" xmlns:xlink="http://www.w3.org/1999/xlink" x="0px" y="0px"
	 viewBox="0 0 511.999 511.999" style="enable-background:new 0 0 511.999 511.999;" xml:space="preserve">
<g>
	<g>
		<path d="M471.524,322.318c19.917-13.5,32.473-36.337,32.473-61.016c0-22.524-10.476-43.805-27.885-57.658
			c11.668-20.166,17.792-42.96,17.792-66.503c0-73.367-59.689-133.057-133.057-133.057c-22.812,0-45.02,5.786-64.76,16.805
			C283.811,7.672,266.504,0,248.211,0c-19.001,0-36.975,8.379-49.267,22.455C181.768,8.07,159.882,0,137.303,0
			C84.408,0,41.374,43.033,41.374,95.929c0,29.758,13.62,56.395,34.954,74.003c-1.306,17.981,3.238,35.99,13.07,51.275
			c9.042,14.056,22.035,24.998,37.209,31.543c-16.384,29.752-36.959,57.263-60.883,81.187l-48.379,48.378
			c-12.458,12.459-12.458,32.729,0,45.188l75.138,75.138c6.035,6.035,14.06,9.358,22.595,9.358c8.534,0,16.559-3.323,22.594-9.358
			l26.799-26.799c40.023-40.023,92.129-67.098,147.779-77.007c2.375,50.799,44.443,91.397,95.819,91.397
			c52.896,0,95.929-43.033,95.929-95.929C503.996,366.26,492.102,340.36,471.524,322.318z M96.481,182.725
			c12.394,5.853,26.231,9.133,40.822,9.133c5.614,0,11.138-0.495,16.56-1.439l-4.488,12.306
			c-3.987,10.931-8.528,21.681-13.583,32.199C114.015,226.069,98.996,205.685,96.481,182.725z M313.464,378.352
			c-31.659,5.106-62.321,15.388-90.633,30.189c-1.001-4.624-3.3-8.872-6.725-12.297l-12.195-12.195
			c-4.706-4.706-10.963-7.298-17.618-7.298c-6.655,0-12.912,2.592-17.618,7.298l-28.961,28.96c-3.905,3.905-3.905,10.237,0,14.143
			c3.905,3.904,10.235,3.905,14.143,0l28.961-28.96c1.253-1.253,2.715-1.44,3.476-1.44s2.223,0.188,3.476,1.44l12.195,12.195
			c1.917,1.916,1.917,5.035,0,6.952l-7.262,7.263c-0.462,0.462-0.866,0.961-1.219,1.483c-15.437,10.466-29.917,22.375-43.157,35.615
			l-26.799,26.799c-4.66,4.659-12.243,4.661-16.903,0L53.5,435.374l50.487-50.488c3.905-3.905,3.905-10.237,0-14.143
			c-3.906-3.904-10.236-3.904-14.143,0l-50.487,50.488l-7.87-7.87c-4.66-4.66-4.66-12.243,0-16.903l48.379-48.378
			c38.91-38.912,69.443-86.806,88.298-138.503l7.366-20.197c7.568,8.815,16.571,16.08,26.551,21.556l-22.467,78.531
			c-1.254,4.382,0.614,9.057,4.541,11.369c1.579,0.929,3.331,1.382,5.07,1.382c2.587,0,5.146-1.002,7.074-2.929l69.266-69.265
			c7.296,7.498,15.422,14.08,24.308,19.68c-1.648,7.102-2.481,14.37-2.481,21.697c0,7.562,0.872,14.973,2.546,22.12l-48.799,48.799
			c-2.859,2.86-3.715,7.161-2.168,10.898c1.548,3.736,5.194,6.173,9.239,6.173h48.787c5.522,0,10-4.478,10-10
			c0-5.522-4.478-10-10-10h-24.645l25.091-25.091c6.344,12.709,15.522,23.961,27.064,32.889
			C319.012,356.89,315.296,367.402,313.464,378.352z M209.465,257.841l11.196-39.134c7.703,2.297,15.757,3.634,24.004,3.934
			L209.465,257.841z M406.504,470.217c-40.582-0.821-73.663-34.005-74.353-74.589c-0.277-16.282,4.559-31.922,13.943-45.16
			c0.892-1.259,1.575-2.673,1.843-4.193c0.741-4.202-1.174-8.204-4.571-10.31c-15.911-9.872-27.285-24.817-32.597-42.064
			c-0.065-0.243-0.141-0.483-0.225-0.722c-2.065-6.953-3.151-14.271-3.151-21.776c0-7.889,1.219-15.692,3.623-23.192
			c1.476-4.604-0.407-9.649-4.641-11.983c-13.781-7.594-26.106-18.248-35.642-30.814c-1.909-2.516-4.87-3.954-7.965-3.954
			c-0.559,0-1.122,0.047-1.685,0.143c-4.313,0.737-8.644,1.11-12.872,1.11c-26.101,0-50.065-13.183-64.105-35.264
			c-2.75-4.326-8.324-5.87-12.911-3.579c-10.6,5.3-22.002,7.987-33.892,7.987c-41.867,0-75.929-34.062-75.929-75.929
			S95.436,20,137.303,20c20.739,0,40.74,8.605,55.038,23.644c0.667,0.678,1.371,1.334,2.001,2.047
			c12.219,13.825,18.964,31.493,19.02,50.004c0.017,5.434,4.288,10.082,9.721,10.23c5.65,0.154,10.28-4.381,10.28-9.996
			c0-21.573-7.191-42.259-20.369-59.082C221.534,26.327,234.479,20,248.211,20c14.899,0,28.858,7.34,37.341,19.635
			c3.078,4.46,9.147,5.66,13.688,2.701c19.658-12.803,42.73-19.133,66.377-18.152c60.074,2.493,108.025,52.334,108.285,112.459
			c0.099,22.814-6.573,44.809-19.269,63.628c-0.343,0.355-0.671,0.731-0.966,1.145c-21.347,30.032-55.303,48.245-90.9,48.778
			c-5.305,0.079-9.917,4.048-10.256,9.342c-0.374,5.839,4.25,10.662,9.977,10.662c0.038,0,0.077,0,0.115-0.001
			c39.229-0.444,76.737-19.035,101.993-50.14c12.134,10.101,19.401,25.243,19.401,41.246c0,22.227-13.983,42.401-34.797,50.202
			c-3.583,1.344-6.086,4.613-6.446,8.423c-0.359,3.81,1.485,7.49,4.753,9.481c22.85,13.92,36.49,38.18,36.49,64.895
			C483.996,436.691,449.083,471.078,406.504,470.217z"/>
	</g>
</g>
<g>
	<g>
		<path d="M361.315,52.205l-0.469-0.001c-5.522,0-10,4.478-10,10c0,5.522,4.479,10,10.001,10l0.32,0.001c0.025,0,0.051,0,0.076,0
			c5.487,0,9.957-4.429,9.998-9.926C371.282,56.757,366.838,52.246,361.315,52.205z"/>
	</g>
</g>
<g>
	<g>
		<path d="M404.259,64.123c-4.743-2.824-10.883-1.269-13.709,3.475c-2.827,4.745-1.271,10.882,3.474,13.709
			c19.59,11.668,31.76,33.063,31.76,55.835c0,5.522,4.478,10,10,10c5.522,0,10-4.478,10-10
			C445.784,107.359,429.873,79.38,404.259,64.123z"/>
	</g>
</g>
<g>
	<g>
		<path d="M131.731,342.991c-1.86-1.861-4.43-2.931-7.07-2.931c-2.63,0-5.21,1.07-7.07,2.931c-1.859,1.859-2.93,4.439-2.93,7.079
			c0,2.631,1.07,5.211,2.93,7.07c1.86,1.86,4.44,2.92,7.07,2.92c2.64,0,5.21-1.06,7.07-2.92c1.869-1.87,2.93-4.439,2.93-7.07
			C134.661,347.43,133.6,344.86,131.731,342.991z"/>
	</g>
</g>
<g>
</g>
<g>
</g>
<g>
</g>
<g>
</g>
<g>
</g>
<g>
</g>
<g>
</g>
<g>
</g>
<g>
</g>
<g>
</g>
<g>
</g>
<g>
</g>
<g>
</g>
<g>
</g>
<g>
</g>
</svg>
