<svg id="Capa_1" enable-background="new 0 0 511.979 511.979" height="512" viewBox="0 0 511.979 511.979" width="512" xmlns="http://www.w3.org/2000/svg"><g><g><g><path d="m345.234 413.978c-35.752 3.177-64.813 6.482-89.235 10.467-74.171 12.105-104.145 32.701-138.3 74.689-5.7 6.899-16.201 7.2-22.2.899l-91.041-91.989c-5.109-5.109-5.971-13.215-1.838-19.142 11.451-16.427 24.141-31.575 37.913-45.216 27.249-30.57 55.6-52.352 82.3-67.118 16.846-9.316 35.852-14.024 55.103-14.024h89.064c27.225 0 50.215 18.133 57.552 42.98 2.365 8.011-3.067 16.465-11.403 16.989-.324.02-.652.031-.983.031h-130.82c-8.159 0-15.1 6.372-15.339 14.527-.253 8.623 6.435 15.473 14.993 15.473h150c4.501 0 8.699-2.1 11.7-5.4 3.84-3.973 22.123-31.102 56.975-60.432 22.584-19.006 76.817-54.168 97.324-54.168 12.9 0 19.799 15.3 11.1 24.899l-136 150c-2.401 3.001-6.301 4.801-10.199 5.101-5.712.477-11.265.954-16.666 1.434z"/></g></g><path d="m346 38.729c44.284-59.362 135-28.399 135 43.937 0 49.363-49.491 84.045-94.645 119.225-47.63 37.107-33.226 36.993-80.71 0-49.712-38.731-94.645-71.569-94.645-119.225 0-72.296 90.677-103.351 135-43.937z"/></g></svg>