<?xml version="1.0" encoding="utf-8"?>
<!-- Generator: Adobe Illustrator 24.1.1, SVG Export Plug-In . SVG Version: 6.00 Build 0)  -->
<svg version="1.1" id="Layer_1" xmlns="http://www.w3.org/2000/svg" xmlns:xlink="http://www.w3.org/1999/xlink" x="0px" y="0px"
	 viewBox="0 0 512 512" style="enable-background:new 0 0 512 512;" xml:space="preserve">
<style type="text/css">
	.st0{fill:#FFFFFF;}
	.st1{fill:#EDBC40;}
</style>
<path class="st0" d="M199,198c-10-31-27.5-92-11.3-116s49.7-60.8,68.3-61s63.5,33,68.3,54c4.7,21,2.5,97.4-4.3,118s14-25,60-34
	c46-9,54-14,82,8s39,31.3,39,31.3s-17,76.2-36,88.4C446,299,380,318,357,311s29.1,25,29.1,25s50.9,44.5,44.9,89s-25,62-25,62
	s-83.4,21.2-116-28s-34-91-34-91s-14,70-28,83s-45,41.1-70,40.5s-55-9.5-55-9.5S83,428.6,80,409s28.1-71,48.6-76s30.4-20,30.4-20
	s-70-5.4-87-15.2S27,272,21,244s-11-42-11-42s45-47,69-49s56,2,75,14S199,198,199,198z"/>
<circle class="st1" cx="256" cy="278.2" r="92.4"/>
<path id="Shape" d="M436.6,309.2c70-22.7,71.4-106.6,71.4-110.1c0-1.8-0.6-3.6-1.7-5.1c-2-2.9-52.5-69.9-122.5-47.1
	c-19.3,6.5-37.4,16.2-53.4,28.8c7-19.1,10.7-39.3,10.9-59.7c0-73.6-79.3-100.9-82.6-102c-1.8-0.6-3.7-0.6-5.5,0
	c-3.3,1.1-82.6,28.4-82.6,102.4c0.2,20.4,3.9,40.6,10.9,59.7c-16.1-12.7-34.2-22.6-53.6-29.2C58.1,124.2,7.8,191.1,5.7,194
	c-1.1,1.5-1.7,3.3-1.7,5.1c0,3.5,1.5,87.4,71.4,110.1c19.4,6.1,39.8,8.9,60.2,8.1c-16.9,11.3-31.8,25.5-43.9,41.8
	c-43.3,59.7,4.9,128,7,131.1c1,1.5,2.6,2.7,4.4,3.2c13.7,3.9,27.8,5.9,42.1,5.8c60.6,0,93.9-36.3,110.9-93.9
	c17.5,57.9,50.6,93.9,110.9,93.9c14.2,0,28.3-2,42-5.9c1.8-0.5,3.3-1.6,4.4-3.2c2.1-2.9,50.3-71.5,7-131.1
	c-12.2-16.3-27-30.4-43.9-41.8C396.8,318,417.1,315.3,436.6,309.2L436.6,309.2z M256,31.3c13,5.1,68.3,30.3,68.3,84.7
	c0,49.2-27.8,100.4-58.7,138.4c-1.5-0.6-1,7.7-1-95.7c0-4.7-3.8-8.5-8.5-8.5s-8.5,3.8-8.5,8.5v88.9c-10.4-15.5-22-30.1-34.7-43.6
	c-15.4-26.8-24-57-25-88C187.7,61.8,243,36.5,256,31.3L256,31.3z M80.7,293C29.1,276,22.1,215.8,21,201.9
	c8.5-10.8,49.8-55.6,101.6-38.7c46.9,15.3,86.9,57.4,113.5,98.7c-0.9,1.1,6.5,2.9-91.3-28.8c-4.4-1.3-9,1.2-10.5,5.6
	s0.9,9.1,5.2,10.7l84.6,27.5c-18,5.1-35.5,11.7-52.3,19.7C141.6,302.8,110.3,301.6,80.7,293L80.7,293z M215.9,449.5
	c-31.8,43.9-91.4,31.9-105,28.5c-7.5-11.9-37.4-64.9-5.5-108.7c28.7-39.4,81.6-64.9,128.9-77.4c0.8,1.2,4.7-4.9-55.6,78
	c-2.3,3.8-1.2,8.7,2.4,11.3c3.6,2.6,8.6,2,11.4-1.4l52.3-72c-0.7,18.6,0.1,37.1,2.5,55.6C244.3,394.2,233.4,423.8,215.9,449.5
	L215.9,449.5z M256,286.7c-4.7,0-8.5-3.8-8.5-8.5c0-4.7,3.8-8.5,8.5-8.5c4.7,0,8.5,3.8,8.5,8.5C264.5,282.9,260.7,286.7,256,286.7z
	 M406.5,369.2c31.9,43.9,2,96.9-5.5,108.7c-13.6,3.4-73.1,15.4-105-28.5c-29-39.9-36.4-97.4-34.1-146.5c1.4,0-3.6-6.6,57,76.8
	c1.6,2.8,4.7,4.4,7.9,4.2c3.2-0.2,6-2.2,7.3-5.2c1.2-3,0.7-6.4-1.4-8.8l-52.1-72c17.6,6.5,35.8,11.6,54.3,15.1
	C363.1,325.6,387.6,344.9,406.5,369.2L406.5,369.2z M281.6,279.8c0-1.5-6.4,1.2,90.8-30.5c4.3-1.6,6.6-6.3,5.2-10.7
	c-1.4-4.4-6-6.8-10.5-5.6l-84.6,27.1c11.5-14.7,21.8-30.3,30.7-46.7c20.8-22.8,46.8-40.3,75.9-50.8c51.2-17.1,92.8,28,101.6,38.7
	c-0.9,14-7.7,74.3-59.7,91.1C384.5,308.3,327.7,297.7,281.6,279.8L281.6,279.8z"/>
</svg>
