<?xml version="1.0" encoding="utf-8"?>
<!-- Generator: Adobe Illustrator 24.1.1, SVG Export Plug-In . SVG Version: 6.00 Build 0)  -->
<svg version="1.1" id="Layer_1" xmlns="http://www.w3.org/2000/svg" xmlns:xlink="http://www.w3.org/1999/xlink" x="0px" y="0px"
	 viewBox="0 0 512 512" style="enable-background:new 0 0 512 512;" xml:space="preserve">
<style type="text/css">
	.st0{fill:#B74141;stroke:#000000;stroke-miterlimit:10;}
	.st1{fill:#4E7A49;stroke:#000000;stroke-miterlimit:10;}
</style>
<path class="st0" d="M256,157.2c0,0-98-20.2-121-8.2S35,244,44,294s30,147.8,70,173.9s74,40.1,94,34.1s57-16,77-7s79,4,99-15
	s82-83.1,78-164.1s-33-147.6-78-158.8s-76-8.3-102-4.2S256,157.2,256,157.2z"/>
<path class="st1" d="M272,106c0,0-2-61-29-76s-72-19-72-19s0,60,22,74S251.8,114.6,272,106z"/>
<g>
	<g>
		<g>
			<path d="M454,210.8c-19.9-40.7-51.6-66.7-89.3-73.4c-25-4.4-56.1-2.6-87.5,5.2c-2.3,0.6-4.6,1-6.9,1.4
				c6.6-21.6,25-64.8,73.1-102.1c4.8-3.7,5.7-10.6,2-15.5c-3.7-4.8-10.6-5.7-15.5-2C307.7,41.7,291.2,60,279,77.4
				c-3-16.4-9.6-36-24.4-50.8c-30-30-80.2-26.6-82.3-26.4c-5.4,0.4-9.8,4.7-10.2,10.2c-0.2,2.1-3.6,52.3,26.4,82.3
				c20.2,20.2,49.6,25.3,67.3,26.3c-4.4,10.6-7.1,19.5-8.7,25.8c-4.2-0.4-8.3-1.1-12.3-2.1c-31.4-7.8-62.5-9.6-87.5-5.2
				c-37.7,6.6-69.4,32.7-89.3,73.4c-19.3,39.5-25.2,88.3-16.5,137.5c8.7,49.2,30.9,93.1,62.5,123.6c27.2,26.2,58.7,40.1,90.2,40.1
				c6.3,0,12.5-0.5,18.8-1.6c2.9-0.5,5.9-1.2,9-2c22.2-6.1,45.7-6.1,67.9,0c3.1,0.8,6.1,1.5,9,2c6.2,1.1,12.5,1.6,18.8,1.6
				c31.6,0,63-13.8,90.2-40.1c31.7-30.5,53.9-74.4,62.5-123.6S473.3,250.3,454,210.8z M204.2,77.1c-15.8-15.8-19.3-40.9-20-54.9
				c13.9,0.7,39,4.2,54.9,20c15.8,15.8,19.3,40.9,20,54.9C245.1,96.4,220,92.9,204.2,77.1z M448.8,344.5
				c-16,90.8-81.5,155.5-146,144.1c-2.3-0.4-4.6-0.9-7-1.6c-26-7.1-53.5-7.1-79.5,0c-2.4,0.7-4.8,1.2-7,1.6
				c-64.5,11.4-130-53.3-146-144.1c-7.9-44.6-2.7-88.7,14.6-124c16.7-34.2,42.8-56,73.3-61.4c7.5-1.3,15.8-2,24.7-2
				c16.7,0,35.3,2.3,53.7,6.9c8.6,2.1,17.4,3.2,26.3,3.2c0.1,0,0.1,0,0.2,0c0.1,0,0.2,0,0.3,0c8.8,0,17.6-1.1,26.1-3.2
				c28.1-6.9,56.7-8.7,78.4-4.9c30.6,5.4,56.6,27.2,73.3,61.4C451.5,255.9,456.6,299.9,448.8,344.5z"/>
			<path d="M414.4,349.1c-5.9-1.7-12,1.7-13.6,7.5c-7.2,24.9-19,46.7-34.2,63.1c-15.6,16.8-33,26.1-49,26.1c-6.1,0-11,4.9-11,11
				s4.9,11,11,11c22.2,0,45.4-11.8,65.2-33.2c17.6-18.9,31.1-43.8,39.3-72C423.7,356.9,420.3,350.7,414.4,349.1z"/>
			<path d="M420.7,304.5c-6-1-11.7,3.1-12.7,9.1c0,0.2-0.1,0.4-0.1,0.6c-1.3,6,2.5,11.8,8.5,13.1c0.8,0.2,1.5,0.2,2.3,0.2
				c5.1,0,9.7-3.5,10.8-8.7c0.1-0.5,0.2-1.1,0.3-1.6C430.8,311.2,426.7,305.5,420.7,304.5z"/>
		</g>
	</g>
</g>
</svg>
