<?xml version="1.0" encoding="utf-8"?>
<!-- Generator: Adobe Illustrator 24.1.1, SVG Export Plug-In . SVG Version: 6.00 Build 0)  -->
<svg version="1.1" id="Layer_1" xmlns="http://www.w3.org/2000/svg" xmlns:xlink="http://www.w3.org/1999/xlink" x="0px" y="0px"
	 viewBox="0 0 356 356" style="enable-background:new 0 0 356 356;" xml:space="preserve">
<style type="text/css">
	.st0{fill:#69CC9F;}
</style>
<path class="st0" d="M24.2,333.2c17,0.4,49.4-1.1,62.2-5.7c12.8-4.6,53-16.7,64.1-41.2c11.1-24.5,25.4-43.3,27.4-60.9
	s14.3,10.7,14.3,10.7s9.6,16.5,23.7,20.5c14.2,4,41.7,8.2,44.8,5.9c3.1-2.3,1.2-45.2-6.1-51.7c-7.3-6.5-26.1-33.1-35.3-32.8
	c-9.2,0.3,42.8-13.5,42.8-13.5s47.2-16.5,58.3-57.4s10-80.4,10-80.4s-75.3-10.3-109.5,26s-40.6,63.2-41.4,76.2s1.5,30.6,1.5,30.6
	s-6.1-44.8-30.3-53.6S92.7,93.3,92.7,93.3s2.9,41.7,6.6,47.5c3.7,5.7,19.8,22.6,30.5,26.4c10.7,3.8,11.5,12.1,11.5,12.1
	S67.5,193,52.9,221.1s-28.7,52-28.7,82.1C24.2,333.2,24.2,333.2,24.2,333.2z"/>
<path d="M338.4,23.9c-0.3-3.3-2.9-5.9-6.2-6.2c-3.3-0.3-80.4-7.7-124.6,36.5c-19.1,19.1-28.6,44.4-33.2,67.2
	c-2.8-5.3-6.4-10.2-10.7-14.4C138.1,81.3,93.8,85.5,92,85.7c-3.3,0.3-5.9,2.9-6.3,6.3c-0.2,1.9-4.4,46.2,21.2,71.8
	c4.3,4.2,9.2,7.8,14.5,10.7c-22.8,4.6-48.1,14-67.2,33.2C9.9,251.8,17.3,328.9,17.6,332.1c0.3,3.3,2.9,5.9,6.2,6.2
	c0.9,0.1,6.7,0.7,15.8,0.7c25.5,0,76.1-4.5,108.8-37.2c19.1-19.1,28.6-44.4,33.2-67.2c2.8,5.3,6.4,10.2,10.7,14.4
	c19,19,48.2,21.6,62.8,21.6c5.1,0,8.5-0.3,9-0.4c3.3-0.3,5.9-2.9,6.3-6.3c0.2-1.9,4.4-46.2-21.2-71.8c-4.3-4.2-9.2-7.8-14.5-10.7
	c22.8-4.6,48.1-14,67.2-33.1C346.1,104.2,338.7,27.1,338.4,23.9L338.4,23.9z M116.8,153.9c-16-16-17.6-42.6-17.4-54.5
	c11.8-0.1,38.5,1.5,54.5,17.4c10.9,10.9,15.1,26.8,16.6,39.5c0,1.4-0.1,2.8-0.1,4.1L126,116.1c-2.7-2.7-7.2-2.7-9.9,0
	s-2.7,7.2,0,9.9l44.4,44.4c-1.3,0-2.7,0-4.1,0.1C143.7,169,127.7,164.8,116.8,153.9L116.8,153.9z M138.5,292
	c-32.9,32.9-89.1,33.6-107.3,32.9c-0.7-18.2,0-74.5,32.9-107.3c26.3-26.3,67.4-32,92.2-32.9c1.7,0.2,3.3,0.3,4.8,0.4l-62.4,62.3
	l-28.6-2c-3.9-0.3-7.2,2.6-7.5,6.5c-0.3,3.9,2.6,7.2,6.5,7.5l16.5,1.1l-15,15c-2.7,2.7-2.7,7.2,0,9.9s7.2,2.7,9.9,0l0,0l31.6-31.6
	l-1.6,23.4c-0.3,3.9,2.6,7.2,6.5,7.5c0,0,0,0,0,0h0.5c3.7,0,6.7-2.9,7-6.5l2.7-39.4l43.7-43.7c0.1,1.5,0.3,3.1,0.4,4.8
	C170.5,224.5,164.8,265.7,138.5,292L138.5,292z M239.2,202.1c16,16,17.6,42.6,17.4,54.5c-11.8,0.1-38.5-1.5-54.5-17.4
	c-10.9-10.9-15.1-26.8-16.6-39.5c0-1.4,0.1-2.8,0.1-4.1l44.4,44.4c2.7,2.7,7.2,2.7,9.9,0c2.7-2.7,2.7-7.2,0-9.9l-44.4-44.4
	c1.3,0,2.6,0,4-0.1C212.3,187,228.2,191.2,239.2,202.1L239.2,202.1z M199.7,171.4c-1.7-0.2-3.3-0.3-4.8-0.4l43.7-43.8l39.4-2.7
	c3.9-0.3,6.8-3.6,6.5-7.5c-0.3-3.9-3.6-6.8-7.5-6.5l-23.4,1.6l31.6-31.6c2.7-2.7,2.7-7.2,0-9.9s-7.2-2.7-9.9,0l-15,15l-1.1-16.5
	c-0.3-3.9-3.6-6.8-7.5-6.5c-3.9,0.3-6.8,3.6-6.5,7.5l0,0l2,28.6L185,161.1c-0.1-1.5-0.2-3.1-0.4-4.8c0.9-24.8,6.6-65.9,32.9-92.2
	c32.9-32.9,89.1-33.6,107.3-32.9c0.7,18.2,0,74.5-32.9,107.3C265.7,164.8,224.5,170.5,199.7,171.4L199.7,171.4z"/>
</svg>
