<?xml version="1.0" encoding="iso-8859-1"?>
<!-- Generator: Adobe Illustrator 19.0.0, SVG Export Plug-In . SVG Version: 6.00 Build 0)  -->
<svg version="1.1" id="Capa_1" xmlns="http://www.w3.org/2000/svg" xmlns:xlink="http://www.w3.org/1999/xlink" x="0px" y="0px"
	 viewBox="0 0 463.54 463.54" style="enable-background:new 0 0 463.54 463.54;" xml:space="preserve">
<g>
	<g>
		<path d="M230.391,53.98c-0.62-5.871-2.416-11.557-5.28-16.72c-2.963-5.308-7.06-9.897-12-13.44
			c-10.48-7.52-25.64-11.44-45.72-9.24c-24,2.64-49.12-11.56-52-13.2c-3.148-2.319-7.581-1.646-9.899,1.502
			c-1.047,1.421-1.525,3.182-1.341,4.938c4.2,41.24,14,69.16,26.28,86.84c6.936,10.823,17.196,19.105,29.24,23.6
			c10.275,3.461,21.455,3.091,31.48-1.04c2.96-1.158,5.811-2.577,8.52-4.24c-0.533-0.933-1.093-1.853-1.68-2.76
			c-2.029-3.074-4.42-5.894-7.12-8.4c-1.545,0.882-3.149,1.657-4.8,2.32c-6.912,2.862-14.625,3.132-21.72,0.76
			c-9.132-3.564-16.874-9.974-22.08-18.28c-9.76-14.04-17.8-35.76-22.24-67.24c11.76,5.08,30.4,11.2,48.72,9.16
			c16.28-1.8,28,1.04,36,6.64c3.29,2.332,6.023,5.365,8,8.88c1.938,3.509,3.148,7.373,3.56,11.36
			c0.393,3.818,0.218,7.673-0.52,11.44c4.224,3.329,8.122,7.052,11.64,11.12C230.167,70.294,231.177,62.1,230.391,53.98z"/>
	</g>
</g>
<g>
	<g>
		<path d="M296.272,72.262c-3.18-2.275-7.603-1.541-9.878,1.639c-0.056,0.078-0.11,0.158-0.163,0.238
			c-5.04,7.36-12.6,11.52-20.36,15.76c-12,6.64-24.6,13.48-32.64,30.68c-9.56-35.16-29.56-46.2-48.92-56.76
			c-10.76-5.88-21.24-11.64-28.36-22.08c-2.275-3.18-6.697-3.914-9.878-1.639c-3.089,2.21-3.884,6.463-1.802,9.639
			c9.04,13.24,20.96,19.8,33.24,26.52c20.32,11.08,41.68,22.8,46.16,73.56c0.64,0,6.2,0,8.28,0c2.08,0,7.36,0,8,0.2
			c4.28-32,18.8-40,32.64-47.44c9.36-5.28,18.4-10.24,25.32-20.44C300.186,78.96,299.452,74.537,296.272,72.262z"/>
	</g>
</g>
<g>
	<g>
		<path d="M231.869,163.7C149.07,163.645,81.904,230.722,81.85,313.521c-0.026,39.752,15.736,77.886,43.821,106.019
			c28.068,28.191,66.219,44.027,106,44c82.799,0.055,149.964-67.023,150.019-149.821C381.744,230.92,314.667,163.754,231.869,163.7z
			 M305.231,199.58c25.672,16.567,45.019,41.295,54.92,70.2c-9.022-7.637-18.699-14.463-28.92-20.4
			C311.671,237.38,297.191,228.42,305.231,199.58z M123.951,396.26c-18.207-23.681-28.054-52.729-28-82.6
			c-0.086-36,14.18-70.549,39.64-96c6.52,17.92,19.32,28.92,31.04,38.96c10.68,9.16,20.24,17.4,20.44,28.88
			c0,8.28-4.96,14.56-10.64,21.52c-7.952,8.575-13.703,18.952-16.76,30.24c-1.137,7.276-1.379,14.665-0.72,22
			c0.44,11.8,1,25.52-2.72,34.12C152.871,401.38,144.231,404.58,123.951,396.26z M231.671,449.38v-0.04
			c-5.535,0.001-11.065-0.333-16.56-1c-4.226-9.479-1.099-20.623,7.44-26.52c6.24-4.56,23.44,0.56,41.56,5.96
			c9.36,2.8,18.92,5.64,28,7.4C273.339,444.539,252.647,449.4,231.671,449.38z M312.871,422.38c-11.32,1.96-28.44-3.16-44.88-8
			c-21.56-6.44-42.04-12.52-53.96-3.8c-11.515,7.615-17.208,21.492-14.36,35c-21.386-5.189-41.184-15.514-57.68-30.08
			c11.865,1.636,23.257-5.253,27.32-16.52c4.92-11.44,4.32-26.92,4-40.2c-0.538-6.061-0.431-12.162,0.32-18.2
			c2.665-9.156,7.447-17.555,13.96-24.52c7.4-9.04,14.04-17.2,13.8-30.64c-0.32-17.92-12-28-25.36-39.44
			c-11.44-9.84-24-20.72-28.6-38.6c23.937-19.067,53.637-29.447,84.24-29.44c21.154-0.033,42.02,4.899,60.92,14.4
			c-13.56,41.56,5.4,53.24,31.08,69.16c13.8,8.52,29.92,18.4,42.64,36.24c0.619,5.311,0.926,10.653,0.92,16
			C367.19,356.483,347.057,396.721,312.871,422.38z"/>
	</g>
</g>
<g>
	<g>
		<path d="M321.726,42.554c-1.496-0.149-3,0.182-4.295,0.946c0,0-19.56,11.64-37.76,9.64c-15.32-1.68-27,1.32-35.12,7.16
			c-3.896,2.766-7.133,6.358-9.48,10.52c-2.194,4.049-3.555,8.496-4,13.08c-0.522,4.443-0.32,8.942,0.6,13.32
			c4.002-4.318,8.516-8.133,13.44-11.36v-0.4c0.274-2.708,1.09-5.334,2.4-7.72c1.343-2.346,3.187-4.367,5.4-5.92
			c5.4-4,13.76-5.84,25.32-4.56c11.622,0.81,23.272-1.137,34-5.68c-3.32,21.28-8.96,36-15.72,45.8
			c-3.629,5.841-9.043,10.357-15.44,12.88c-3.739,1.273-7.763,1.454-11.6,0.52c-3.695,3.41-6.983,7.235-9.8,11.4l1.52,0.64
			c7.835,3.225,16.572,3.51,24.6,0.8c9.279-3.469,17.181-9.856,22.52-18.2c9.24-13.32,16.6-34.28,19.76-65.12
			C328.458,46.409,325.617,42.941,321.726,42.554z"/>
	</g>
</g>
<g>
</g>
<g>
</g>
<g>
</g>
<g>
</g>
<g>
</g>
<g>
</g>
<g>
</g>
<g>
</g>
<g>
</g>
<g>
</g>
<g>
</g>
<g>
</g>
<g>
</g>
<g>
</g>
<g>
</g>
</svg>
