<?xml version="1.0" encoding="utf-8"?>
<!-- Generator: Adobe Illustrator 24.1.1, SVG Export Plug-In . SVG Version: 6.00 Build 0)  -->
<svg version="1.1" id="Layer_1" xmlns="http://www.w3.org/2000/svg" xmlns:xlink="http://www.w3.org/1999/xlink" x="0px" y="0px"
	 viewBox="0 0 512 512" style="enable-background:new 0 0 512 512;" xml:space="preserve">
<style type="text/css">
	.st0{fill:#40663A;}
	.st1{fill:#7CAA74;}
</style>
<path class="st0" d="M131,387c22,5,42.2,2.9,61.3,0s22.5,23.3,22.5,23.3V498H304h56v-76c0,0,40-16.5,51-35.2s20-40.9,20-40.9
	s52-7,56-24.9s28-71,0-96s-31-19.1-31-19.1s16-29.9,11-45.9s-25-41-44-45s-30.3-10.9-30.3-10.9S377.5,31,336.8,20s-72.2-15-99.5,9
	S202,52,202,52l-52-1c0,0-66,29-67,46s0,38,0,38s-11.2,16.9-6.2,31s-1.3,19.9-1.3,19.9S19,205,16,219s-9,58.7,0,66.4
	s35,31.5,45,29.1s9,21.2,9,21.2S86.2,364,95.1,368S131,387,131,387z"/>
<path class="st1" d="M125.9,293.2L104,314.4L214.8,405v93H360V397l28-62.3c0,0-32-22.3-32-41.5c0-19.2-30,41.5-30,41.5l-1-78.7
	h-26.3c0,0-24.9,37.2-42.7,37.2c-14,0-9.5,58-9.5,58l-71.5-58H125.9z"/>
<path d="M490.4,215.3c-4-4.4-8.7-7.4-12.9-10.1c-2.4-1.5-4.6-3-6.4-4.4c0.1-0.2,0.2-0.5,0.3-0.8c1.9-5.3,3.1-11,3.8-16.9
	c2.3-22-5.6-43.7-21.6-59.6c-13.4-13.3-30.9-20.9-49.1-21.5c-1.9-15.8-7-31.3-15-45.1c-9.8-16.8-23.6-31-40.1-40.9
	C316-4,274.7-5.4,238.9,12.5c-14.7,7.3-27.3,17.3-37.4,29.2c-3.5-0.5-7-0.9-10.6-1.2c-30.2-2.3-59.4,4.9-82.1,20
	c-23.5,15.7-37.5,38.1-39.4,63c-0.3,4.1-0.3,8.3,0.1,12.4c-1.1,2.3-2.1,4.7-3,7.1c-5,13.2-4.9,25.1-4.6,36.7
	c-29,4.8-52.8,26.6-59.7,55.7c-4.4,18.6-1.8,36.7,7.4,52.3c8.2,13.9,21.3,25,37.1,31.4c2.4,1,4.8,1.8,7.3,2.6
	c10.3,31.9,33.6,57.5,64.5,70.7c14.3,6.1,29.6,9.2,44.9,9.2c10.8,0,21.6-1.5,32-4.6l12,9.6V502c0,5.5,4.5,10,10,10h140
	c5.5,0,10-4.5,10-10v-68.4c31.5-17.3,58-44.8,70-73.1c0.9-2.1,1.7-4.3,2.5-6.4c17.8-2.4,34.5-10.7,47.7-23.8
	c15.9-15.9,24.6-36.8,24.6-58.8C512,250.6,504.3,230.7,490.4,215.3z M119.8,77.1C136.6,66,157.6,60,179.9,60c2.8,0,5.6,0.1,8.4,0.3
	c-5,9.3-8.7,19.2-11,29.5c-27.8-9.1-59.1-3.6-82.2,14.3C100.6,93.1,109.6,83.9,119.8,77.1C136.6,66,108.7,84.6,119.8,77.1z
	 M126.2,373.9c-22.1-9.4-39.6-26.6-49.3-48.2c7.9-0.3,15.5-1.9,22.8-4.7l75.3,59.8C158.5,382.8,141.7,380.5,126.2,373.9z M348,398.5
	c-0.5,1.2-0.8,2.5-0.8,3.8V492h-120v-89.6c0.3-3.3-1.1-6.5-3.8-8.6l-104.9-83.3l-0.1-0.1c4.6-3.6,8.8-7.7,12.5-12.3c0,0,0,0,0,0
	c11.3,5.8,23.8,8.5,36.7,7.9l73.3,58.3c3,2.4,7.1,2.8,10.6,1.2c3.5-1.7,5.7-5.2,5.7-9v-54.2c12-2.2,23.3-7.6,32.6-15.4
	c4.1-3.5,7.9-7.4,11.1-11.7c1.7-2.2,3.4-7.3,5.5-8.6c3.4-2.1,5.8-0.1,10.8,0.9v86.4c0,4.8,3.4,8.9,8.1,9.8s9.4-1.6,11.2-6l19.1-46.3
	c4.8,8.8,11.2,16.7,18.8,23.3L348,398.5z M192.3,299.9c2.2-1.2,4.3-2.4,6.2-3.6c9.1-5.5,9.3-2.8,18.3,1.2c6.5,2.8,13.4,4.7,20.5,5.4
	v32.8L192.3,299.9z M261.9,280.3c0.9-0.3,1.8-0.7,2.7-1.1C263.7,279.6,262.8,280,261.9,280.3z M282.7,265.9c0.8-0.9,1.5-1.8,2.3-2.8
	C284.2,264.1,283.5,265,282.7,265.9z M346.2,281.7c-3,7.2-5.9,14.4-8.9,21.6c0-6.7,0-13.4,0-20.1c0-3.1-1.1-8.6,0-11.5
	c1.9-4.9,0.5-2.8,8.3-4.2C345.4,272.2,345.6,277,346.2,281.7z M367.3,410.3v-5.9l24.1-58.4c8.4,4.2,17.4,7,26.8,8.2
	C408.9,375,390.1,395.6,367.3,410.3z M430.9,334.7c-0.3,0-0.5,0-0.7,0c-0.2,0-0.5,0-0.7,0c-0.2,0-0.5,0-0.7,0c0,0,0,0,0,0h0
	c0,0,0,0,0,0c-0.3,0-0.6,0-0.9,0c-0.3,0-0.6,0-0.9,0c-0.4,0-0.8,0-1.2-0.1c-0.2,0-0.5,0-0.7,0c-0.1,0-0.2,0-0.4,0
	c-0.1,0-0.2,0-0.3,0c-0.1,0-0.1,0-0.1,0c0,0,0,0-0.1,0c-0.4,0-0.8-0.1-1.2-0.1c-0.5-0.1-1.1-0.1-1.6-0.2c-0.5-0.1-1-0.1-1.5-0.2
	c-15.9-2.3-30.4-10.8-40.7-24.1c-12.2-15.7-16.5-35.6-11.8-54.4c5-19.7-23-8-30.4-7.2c-7.8,0.8-15.8-0.2-23.2-2.8
	c-9.7-3.4-15.2-7.9-21.5,3.4c-7.3,13.1-12.6,23.1-27.5,29.7c-13.2,5.8-28.5,5.9-41.6-0.4c-6.3-3-10.5-7.9-17.9-7.1
	c-6,0.7-12.3,4.9-17.2,7.9c-3.8,2.3-7.2,4.3-10.8,5.2c-13.2,3.4-27.6,1.4-39.4-5.3v0c0,0,0,0,0,0c0,0-0.1,0-0.1-0.1
	c-0.5-0.3-0.9-0.5-1.4-0.8c0,0-0.1,0-0.1-0.1c-0.1-0.1-0.2-0.1-0.3-0.2c0,0,0,0,0,0c-0.3-0.2-0.6-0.4-0.9-0.6
	c-0.4-0.3-0.9-0.6-1.3-0.9c-2.3-1.6-5.1-2.2-7.8-1.6c-2.7,0.6-5.1,2.3-6.5,4.6c-0.3,0.6-0.7,1.1-1,1.7c-5.7,8.9-13,15-20.9,18.8
	c-14.1,6.6-30.2,5.9-43.5,0.5c-21.3-8.6-39.5-30.7-32.5-60.6c5.6-23.6,26.4-40.6,50.7-41.3c5.4-0.2,9.7-4.6,9.7-10
	c0-3-0.1-5.9-0.1-8.6c-0.2-10.8-0.4-20.1,3.3-30c13.6-36.1,56.2-54.6,91.8-39c-4.2-1.8-2.7,8.2-2.6,12c0.2,6.9,0.9,13.8,2.1,20.5
	c2.7,14.7,8,29.1,17.2,41c9.4,12.1,22.4,20.7,37.1,25.1c9,2.7,33,9.5,38.6-1.6c8.7-17.2-21.8-14.7-30-16.8
	c-14.4-3.6-26.3-12-33.9-24.8c-12-20.2-13.9-47.7-9.1-70.4c5.8-28.2,24.5-52.3,51.3-65.6c29.7-14.8,63.8-13.7,91.2,2.8
	c27.4,16.6,45.2,47,46.2,79.5c0.1,2.8,1.3,5.4,3.4,7.2c2.1,1.8,4.9,2.7,7.6,2.4c15.8-1.8,31.5,3.9,43.2,15.4
	c11.7,11.6,17.4,27.4,15.8,43.3c-0.4,4.3-1.4,8.4-2.7,12.3c-0.5,1.4-0.9,2.1-1.3,2.9c-3.8,7.8-0.6,12.2,3.3,16.4l0.2,0.2
	c3.6,3.9,7.8,6.6,11.9,9.2c3.4,2.2,6.7,4.3,8.9,6.7c10.4,11.5,16.4,27,16.4,42.6C492,305,464.2,333.5,430.9,334.7
	C430.6,334.7,464.2,333.5,430.9,334.7z"/>
<path d="M298.7,205.9c-12.9,0-12.8-20.1,0-20C311.5,186.1,311.6,205.9,298.7,205.9z"/>
</svg>
